# xmcd CD database file
#
# Track frame offsets:
#	150
#	15267
#	36169
#	50768
#	70970
#	88827
#	107822
#	125539
#	145471
#	155723
#	171437
#	189474
#	198314
#	226628
#
# Disc length: 4235 seconds
#
# Revision: 1
# Processed by: cddbd v1.4PL0 Copyright (c) Steve Scherf et al.
# Submitted via: CDex 1.40Beta9
#
DISCID=c410890e
DTITLE=Sonny Rhodes - Blue Diamond
DYEAR=1999
DGENRE=Blues
TTITLE0=Meet Me At The 10th Street Inn
TTITLE1=Shame On You
TTITLE2=Blues Is My Religion
TTITLE3=Blue Diamond
TTITLE4=Back Where You Come From
TTITLE5=Rainy Day
TTITLE6=What You're Looking For
TTITLE7=Beside Myself
TTITLE8=Too Much Trouble
TTITLE9=Love From A Stone
TTITLE10=Blues Walk
TTITLE11=Blues Man's Prayer
TTITLE12=Life's Rainbow
TTITLE13=BONUS TRACK (after 2 min.)
EXTD=YEAR: 1999 ID3G: 0
EXTT0=
EXTT1=
EXTT2=
EXTT3=
EXTT4=
EXTT5=
EXTT6=
EXTT7=
EXTT8=
EXTT9=
EXTT10=
EXTT11=
EXTT12=
EXTT13=
PLAYORDER=
